<svg width="21" height="21" fill="none" xmlns="http://www.w3.org/2000/svg"><path d="M17.67 0H2.752A2.752 2.752 0 0 0 0 2.751v14.914a2.752 2.752 0 0 0 2.752 2.752h7.357l.013-7.296H8.226a.447.447 0 0 1-.447-.446l-.01-2.351c0-.248.2-.45.448-.45h1.892V7.603c0-2.637 1.611-4.073 3.964-4.073h1.931c.247 0 .448.2.448.448V5.96c0 .246-.2.447-.447.447H14.82c-1.28 0-1.528.608-1.528 1.5v1.968h2.812c.268 0 .476.233.444.5l-.278 2.351a.447.447 0 0 1-.445.395h-2.52l-.013 7.296h4.378a2.752 2.752 0 0 0 2.752-2.752V2.752A2.752 2.752 0 0 0 17.67 0Z" fill="#fff"/></svg>