<svg width="22" height="21" fill="none" xmlns="http://www.w3.org/2000/svg"><path d="M14.941 0H6.687A6.09 6.09 0 0 0 .603 6.082v8.252a6.09 6.09 0 0 0 6.084 6.083h8.254a6.09 6.09 0 0 0 6.084-6.083V6.082A6.09 6.09 0 0 0 14.94 0Zm4.03 14.334a4.029 4.029 0 0 1-4.03 4.029H6.687a4.029 4.029 0 0 1-4.03-4.029V6.082a4.029 4.029 0 0 1 4.03-4.028h8.254a4.029 4.029 0 0 1 4.03 4.028v8.252Z" fill="#fff"/><path d="M10.814 4.928a5.287 5.287 0 0 0-5.282 5.28c0 2.912 2.37 5.28 5.282 5.28a5.287 5.287 0 0 0 5.282-5.28c0-2.911-2.37-5.28-5.282-5.28Zm0 8.507a3.227 3.227 0 1 1 0-6.454 3.227 3.227 0 0 1 0 6.454ZM16.106 6.233a1.265 1.265 0 1 0 0-2.531 1.265 1.265 0 0 0 0 2.53Z" fill="#fff"/></svg>