<svg width="26" height="21" fill="none" xmlns="http://www.w3.org/2000/svg"><path d="M24.876 2.375a9.693 9.693 0 0 1-1.69.57 5.277 5.277 0 0 0 1.39-2.217.276.276 0 0 0-.403-.323 9.743 9.743 0 0 1-2.584 1.07.684.684 0 0 1-.614-.153A5.278 5.278 0 0 0 17.48 0a5.64 5.64 0 0 0-1.674.259 5.123 5.123 0 0 0-3.45 3.694 5.654 5.654 0 0 0-.125 1.948.196.196 0 0 1-.212.214c-3.75-.35-7.131-2.159-9.522-5.095a.276.276 0 0 0-.452.035 5.294 5.294 0 0 0-.716 2.66 5.29 5.29 0 0 0 1.575 3.772A4.73 4.73 0 0 1 1.7 7.02a.276.276 0 0 0-.41.239 5.299 5.299 0 0 0 3.085 4.881 4.711 4.711 0 0 1-1.003-.084.277.277 0 0 0-.314.357 5.298 5.298 0 0 0 4.182 3.607 9.738 9.738 0 0 1-5.46 1.66h-.611a.405.405 0 0 0-.396.306.42.42 0 0 0 .2.463 14.484 14.484 0 0 0 7.287 1.968c2.24 0 4.335-.446 6.227-1.323a13.752 13.752 0 0 0 4.556-3.42 14.995 14.995 0 0 0 2.79-4.68c.62-1.66.948-3.43.948-5.121v-.081a.9.9 0 0 1 .337-.7 10.454 10.454 0 0 0 2.1-2.31c.154-.23-.088-.52-.341-.407Z" fill="#fff"/></svg>